<?xml version="1.0" standalone="no"?>
<svg xmlns:xlink="http://www.w3.org/1999/xlink" id="wave" style="transform:rotate(0deg); transition: 0.3s" viewBox="0 0 1440 140" version="1.1" xmlns="http://www.w3.org/2000/svg"><defs><linearGradient id="sw-gradient-0" x1="0" x2="0" y1="1" y2="0"><stop stop-color="rgba(255, 204, 204, 1)" offset="0%"/><stop stop-color="rgba(255, 204, 204, 1)" offset="100%"/></linearGradient></defs><path style="transform:translate(0, 0px); opacity:1" fill="url(#sw-gradient-0)" d="M0,98L48,100.3C96,103,192,107,288,91C384,75,480,37,576,39.7C672,42,768,84,864,91C960,98,1056,70,1152,56C1248,42,1344,42,1440,51.3C1536,61,1632,79,1728,72.3C1824,65,1920,33,2016,21C2112,9,2208,19,2304,25.7C2400,33,2496,37,2592,44.3C2688,51,2784,61,2880,56C2976,51,3072,33,3168,28C3264,23,3360,33,3456,32.7C3552,33,3648,23,3744,30.3C3840,37,3936,61,4032,67.7C4128,75,4224,65,4320,56C4416,47,4512,37,4608,46.7C4704,56,4800,84,4896,100.3C4992,117,5088,121,5184,114.3C5280,107,5376,89,5472,84C5568,79,5664,89,5760,77C5856,65,5952,33,6048,30.3C6144,28,6240,56,6336,67.7C6432,79,6528,75,6624,70C6720,65,6816,61,6864,58.3L6912,56L6912,140L6864,140C6816,140,6720,140,6624,140C6528,140,6432,140,6336,140C6240,140,6144,140,6048,140C5952,140,5856,140,5760,140C5664,140,5568,140,5472,140C5376,140,5280,140,5184,140C5088,140,4992,140,4896,140C4800,140,4704,140,4608,140C4512,140,4416,140,4320,140C4224,140,4128,140,4032,140C3936,140,3840,140,3744,140C3648,140,3552,140,3456,140C3360,140,3264,140,3168,140C3072,140,2976,140,2880,140C2784,140,2688,140,2592,140C2496,140,2400,140,2304,140C2208,140,2112,140,2016,140C1920,140,1824,140,1728,140C1632,140,1536,140,1440,140C1344,140,1248,140,1152,140C1056,140,960,140,864,140C768,140,672,140,576,140C480,140,384,140,288,140C192,140,96,140,48,140L0,140Z"/></svg>