<?xml version="1.0" standalone="no"?>
<svg xmlns:xlink="http://www.w3.org/1999/xlink" id="wave" style="transform:rotate(0deg); transition: 0.3s" viewBox="0 0 1440 320" version="1.1" xmlns="http://www.w3.org/2000/svg"><defs><linearGradient id="sw-gradient-0" x1="0" x2="0" y1="1" y2="0"><stop stop-color="rgba(255, 204, 204, 1)" offset="0%"/><stop stop-color="rgba(255, 204, 204, 1)" offset="100%"/></linearGradient></defs><path style="transform:translate(0, 0px); opacity:1" fill="url(#sw-gradient-0)" d="M0,192L30,176C60,160,120,128,180,144C240,160,300,224,360,218.7C420,213,480,139,540,122.7C600,107,660,149,720,160C780,171,840,149,900,122.7C960,96,1020,64,1080,48C1140,32,1200,32,1260,69.3C1320,107,1380,181,1440,192C1500,203,1560,149,1620,128C1680,107,1740,117,1800,101.3C1860,85,1920,43,1980,53.3C2040,64,2100,128,2160,128C2220,128,2280,64,2340,42.7C2400,21,2460,43,2520,48C2580,53,2640,43,2700,32C2760,21,2820,11,2880,53.3C2940,96,3000,192,3060,218.7C3120,245,3180,203,3240,192C3300,181,3360,203,3420,186.7C3480,171,3540,117,3600,128C3660,139,3720,213,3780,224C3840,235,3900,181,3960,154.7C4020,128,4080,128,4140,128C4200,128,4260,128,4290,128L4320,128L4320,320L4290,320C4260,320,4200,320,4140,320C4080,320,4020,320,3960,320C3900,320,3840,320,3780,320C3720,320,3660,320,3600,320C3540,320,3480,320,3420,320C3360,320,3300,320,3240,320C3180,320,3120,320,3060,320C3000,320,2940,320,2880,320C2820,320,2760,320,2700,320C2640,320,2580,320,2520,320C2460,320,2400,320,2340,320C2280,320,2220,320,2160,320C2100,320,2040,320,1980,320C1920,320,1860,320,1800,320C1740,320,1680,320,1620,320C1560,320,1500,320,1440,320C1380,320,1320,320,1260,320C1200,320,1140,320,1080,320C1020,320,960,320,900,320C840,320,780,320,720,320C660,320,600,320,540,320C480,320,420,320,360,320C300,320,240,320,180,320C120,320,60,320,30,320L0,320Z"/></svg>